<?xml version="1.0" standalone="no"?>
<!DOCTYPE svg PUBLIC "-//W3C//DTD SVG 20010904//EN"
 "http://www.w3.org/TR/2001/REC-SVG-20010904/DTD/svg10.dtd">
<svg version="1.0" xmlns="http://www.w3.org/2000/svg"
 width="32.000000pt" height="32.000000pt" viewBox="0 0 32.000000 32.000000"
 preserveAspectRatio="xMidYMid meet">
<metadata>
Created by potrace 1.16, written by Peter Selinger 2001-2019
</metadata>
<g transform="translate(0.000000,32.000000) scale(0.050000,-0.050000)"
fill="#bfc8ad" stroke="none">
<path d="M167 604 c-59 -18 -118 -75 -134 -129 -7 -21 -11 -41 -8 -43 2 -2 17
6 34 19 26 19 34 21 56 11 16 -8 28 -23 32 -43 4 -21 9 -27 16 -20 17 17 62
13 81 -8 24 -26 17 -51 -19 -71 -17 -9 -34 -30 -41 -48 -5 -18 -20 -39 -32
-48 -35 -24 -26 -34 26 -28 57 8 67 16 51 41 -7 11 -9 28 -5 38 5 15 10 11 26
-20 11 -21 17 -41 14 -44 -3 -3 -33 -17 -67 -31 -78 -32 -98 -64 -73 -116 18
-39 55 -52 99 -36 22 9 34 9 44 1 11 -9 13 1 13 54 0 36 -3 68 -7 70 -5 2 -26
-16 -49 -39 -22 -24 -35 -45 -30 -47 6 -3 8 -7 5 -11 -20 -21 -61 37 -45 63 4
6 34 20 67 32 35 13 67 32 76 46 18 26 48 30 57 7 9 -24 9 -24 -30 -40 l-37
-15 34 -35 c39 -41 48 -42 41 -9 -3 16 2 33 13 45 14 15 16 29 11 64 -6 38 -4
46 13 55 25 14 27 14 45 -5 9 -8 16 -28 16 -44 l0 -29 29 17 c35 20 57 7 69
-41 l8 -31 23 53 c49 116 35 254 -33 320 l-33 32 -7 -51 c-5 -35 -15 -60 -36
-83 -34 -38 -47 -32 -29 16 7 20 9 46 5 63 l-8 29 -13 -31 c-11 -27 -17 -31
-40 -26 -23 4 -26 9 -23 33 3 19 0 29 -8 29 -21 0 -37 -40 -31 -77 5 -29 4
-33 -8 -23 -20 17 -28 65 -15 92 7 13 23 33 37 45 l26 21 -30 15 c-46 24 -121
29 -176 11z"/>
</g>
</svg>
